<svg aria-hidden="true" style="position: absolute; width: 0; height: 0; overflow: hidden;" version="1.1" xmlns="http://www.w3.org/2000/svg" xmlns:xlink="http://www.w3.org/1999/xlink">
<defs>
<symbol id="icon-previous-back-svgrepo-com" viewBox="0 0 32 32">
<path fill="#b3404a" style="fill: var(--color1, #b3404a)" d="M29.921 10.665h-5.69c-0.566 0-1.025-0.459-1.025-1.025s0.459-1.025 1.025-1.025h5.69c0.566 0 1.025 0.459 1.025 1.025s-0.459 1.025-1.025 1.025z"></path>
<path fill="#f4b2b0" style="fill: var(--color2, #f4b2b0)" d="M11.771 16l6.813-6.629v-7.34c0-0.892-1.077-1.34-1.71-0.712l-14.795 14.681 14.795 14.681c0.633 0.628 1.71 0.18 1.71-0.712v-7.34l-6.813-6.629z"></path>
<path fill="#b3404a" style="fill: var(--color1, #b3404a)" d="M29.921 21.335h-11.196l-5.483-5.335 6.058-5.894c0.198-0.193 0.31-0.458 0.31-0.735v-7.34c-0-1.12-0.913-2.031-2.036-2.031-0.533 0-1.038 0.21-1.422 0.591l-14.795 14.682c-0.194 0.192-0.303 0.455-0.303 0.728s0.109 0.535 0.303 0.728l14.795 14.682c0.384 0.381 0.889 0.591 1.422 0.591 0 0 0 0 0 0 0.521 0 1.018-0.196 1.399-0.552 0.411-0.384 0.637-0.909 0.637-1.479v-6.583h10.312c0.566 0 1.025-0.459 1.025-1.025s-0.459-1.025-1.025-1.025zM17.558 29.916l-14.023-13.916 14.024-13.916v6.854l-6.503 6.327c-0.198 0.193-0.31 0.458-0.31 0.735s0.112 0.542 0.31 0.735l6.503 6.327-0 6.854z"></path>
<path fill="#b3404a" style="fill: var(--color1, #b3404a)" d="M27.698 17.025h-9.767c-0.566 0-1.025-0.459-1.025-1.025s0.459-1.025 1.025-1.025h9.767c0.566 0 1.025 0.459 1.025 1.025s-0.459 1.025-1.025 1.025z"></path>
</symbol>
</defs>
</svg>
